<svg xmlns="http://www.w3.org/2000/svg" width="45" height="45" viewBox="0 0 45 45">
  <g id="surface" transform="translate(0)">
    <path id="Union_2" data-name="Union 2" d="M38.438,45a.938.938,0,0,1,0-1.876H41.8l-7.771-7.772a.937.937,0,0,1,1.325-1.326L43.125,41.8V38.438a.937.937,0,1,1,1.875,0v5.624a.938.938,0,0,1-.937.938ZM22.5,45h-.043a.928.928,0,0,1-.337-.079l-9.9-3.634a.938.938,0,0,1,.646-1.762l8.694,3.194v-20.5L5.626,16.344V32.363a.937.937,0,0,1-1.875,0V15c0-.011,0-.022,0-.033s0,0,0-.007a.939.939,0,0,1,.667-.859L16.552,9.639A.938.938,0,1,1,17.2,11.4L7.4,15l15.1,5.564L37.6,15l-9.8-3.6a.937.937,0,1,1,.646-1.76L40.609,14.11a.939.939,0,0,1,.641.851v.006c0,.011,0,.022,0,.033V32.363a.938.938,0,0,1-1.875,0V16.344L23.438,22.216v20.5l8.7-3.195a.938.938,0,0,1,.646,1.762l-9.915,3.64a.925.925,0,0,1-.324.073H22.5ZM.938,45A.938.938,0,0,1,0,44.062V38.438a.938.938,0,0,1,1.877,0V41.8l7.772-7.772a.938.938,0,0,1,1.326,1.326L3.2,43.124h3.36a.938.938,0,0,1,0,1.876ZM21.563,14.062V3.2L19.415,5.349a.938.938,0,0,1-1.326-1.326L21.839.273a.939.939,0,0,1,1.325,0l3.75,3.75a.939.939,0,0,1-1.326,1.328L23.438,3.2V14.062a.937.937,0,1,1-1.875,0Z" transform="translate(0)" fill="#fff"/>
  </g>
</svg>
