<svg xmlns="http://www.w3.org/2000/svg" width="45" height="45.515" viewBox="0 0 45 45.515">
  <path id="bug" d="M44.556,29.736a8.834,8.834,0,0,1-3.088-6.714.734.734,0,0,0-1.062-.656L36.75,24.2A22.547,22.547,0,0,0,34.9,18.115l4.047-4.722,4.927-1.408-.4-1.411-5.139,1.468a.725.725,0,0,0-.356.228l-3.809,4.439a15.729,15.729,0,0,0-3.8-4.5,7.894,7.894,0,0,0-4.062-6.229l2.129-3.2a.7.7,0,0,1,.586-.312.709.709,0,0,1,.7.734.734.734,0,0,1-.734.734V5.4a2.213,2.213,0,0,0,2.2-2.236,2.169,2.169,0,0,0-3.973-1.2L24.858,5.5a5.1,5.1,0,0,0-2.016,0l-2.36-3.54A2.169,2.169,0,0,0,16.509,3.2a2.2,2.2,0,0,0,2.2,2.2V3.936a.743.743,0,0,1-.734-.768A.7.7,0,0,1,19.26,2.78l2.129,3.2a7.894,7.894,0,0,0-4.062,6.231,15.729,15.729,0,0,0-3.793,4.5L9.725,12.265a.725.725,0,0,0-.356-.228L4.231,10.569l-.4,1.411,4.927,1.408L12.8,18.11A22.546,22.546,0,0,0,10.95,24.2L7.294,22.369a.734.734,0,0,0-1.062.653,8.834,8.834,0,0,1-3.088,6.714L1.35,31.274,2.3,32.389l1.8-1.537a10.3,10.3,0,0,0,3.536-6.673l3.12,1.56c-.079.793-.123,1.6-.123,2.423a25.207,25.207,0,0,0,.315,3.969l-4.184,1.2a.734.734,0,0,0-.495.937L7.281,37.3A8.126,8.126,0,0,1,7.7,39.88a8.206,8.206,0,0,1-1.63,4.892l-.425.567,1.175.881.425-.566A9.69,9.69,0,0,0,9.168,39.88a9.616,9.616,0,0,0-.494-3.042L7.9,34.529l3.319-.949c1.67,7.483,6.7,12.933,12.626,12.933S34.806,41.063,36.476,33.58l3.32.949-.772,2.309a9.625,9.625,0,0,0,1.431,8.816l.425.566,1.175-.881-.425-.567A8.157,8.157,0,0,1,40.418,37.3l1.012-3.037a.734.734,0,0,0-.495-.937l-4.184-1.2a25.213,25.213,0,0,0,.313-3.971c0-.821-.043-1.63-.119-2.423l3.12-1.56A10.3,10.3,0,0,0,43.6,30.852L45.4,32.389l.954-1.114ZM23.85,37.19,23.131,28.8A10.262,10.262,0,0,0,13.814,19.4c.112-.265.231-.524.353-.78H33.533c.122.255.241.514.353.78a10.262,10.262,0,0,0-9.317,9.4Zm0-30.318c2.166,0,4.031,1.71,4.783,4.184a9.781,9.781,0,0,0-9.567,0C19.819,8.583,21.684,6.872,23.85,6.872Zm0,4.4c3.552,0,6.737,2.281,8.893,5.873H14.957C17.113,13.558,20.3,11.277,23.85,11.277ZM12.1,28.161a23.043,23.043,0,0,1,1.163-7.321,8.8,8.8,0,0,1,8.4,8.086L23.047,45C16.944,44.405,12.1,37.083,12.1,28.161ZM24.653,45l1.379-16.077a8.8,8.8,0,0,1,8.4-8.085A23.043,23.043,0,0,1,35.6,28.161C35.6,37.083,30.756,44.405,24.653,45Z" transform="translate(-1.35 -0.999)" fill="#fff"/>
</svg>
