<svg xmlns="http://www.w3.org/2000/svg" width="45" height="47.044" viewBox="0 0 45 47.044">
  <g id="line_icons" data-name="line icons" transform="translate(-3.52 -2)">
    <path id="Union_3" data-name="Union 3" d="M14.992,43.6A3.451,3.451,0,0,1,18.9,40.177l2.753-8.03A6.216,6.216,0,0,1,17.907,27.7L6.866,28.73a3.448,3.448,0,1,1-.075-1.343l10.977-1.026a6.2,6.2,0,0,1,2.969-5.268L13.94,6.84a3.454,3.454,0,1,1,1.247-.5l6.763,14.181a6.218,6.218,0,0,1,5.684.857l8.475-8.5a3.448,3.448,0,1,1,.948.954l-8.428,8.45a6.206,6.206,0,0,1,1.381,5.545l8.523,3.094A3.45,3.45,0,1,1,38.1,32.6a3.5,3.5,0,0,1,.022-.391L29.557,29.1a6.212,6.212,0,0,1-6.606,3.415l-2.776,8.1A3.449,3.449,0,1,1,14.992,43.6Zm1.344,0a2.1,2.1,0,1,0,2.1-2.1A2.1,2.1,0,0,0,16.336,43.6Zm23.11-11a2.1,2.1,0,1,0,.109-.672.679.679,0,0,1-.029.093A2.1,2.1,0,0,0,39.446,32.6ZM19.112,26.391a4.862,4.862,0,1,0,8.148-3.583.659.659,0,0,1-.057-.052,4.85,4.85,0,0,0-3.228-1.23v0a4.844,4.844,0,0,0-2,.429.664.664,0,0,1-.142.067A4.862,4.862,0,0,0,19.112,26.391ZM1.344,28.249a2.106,2.106,0,1,0,4.212,0c0-.01,0-.021,0-.032a.667.667,0,0,1-.007-.071.675.675,0,0,1,0-.068,2.108,2.108,0,0,0-2.1-1.936h0A2.106,2.106,0,0,0,1.344,28.249Zm37.639-15.17a2.1,2.1,0,1,0,0-4.208v0a2.1,2.1,0,0,0-1.548,3.53.694.694,0,0,1,.056.05.681.681,0,0,1,.055.062A2.1,2.1,0,0,0,38.983,13.079ZM11.2,3.449a2.107,2.107,0,0,0,2.645,2.035.672.672,0,0,1,.412-.157A2.105,2.105,0,1,0,11.2,3.449Z" transform="translate(3.52 2)" fill="#fff"/>
  </g>
</svg>
